<svg width="24" height="24" viewBox="0 0 24 24" fill="none" xmlns="http://www.w3.org/2000/svg">
<path d="M12 21V13M12 21L4.94 16.5875C4.48048 16.3003 4.25072 16.1567 4.12536 15.9305C4 15.7043 4 15.4334 4 14.8915V8M12 21L16 18.5L19.06 16.5875C19.5195 16.3003 19.7493 16.1567 19.8746 15.9305C20 15.7043 20 15.4334 20 14.8915V8M12 13L4 8M12 13L20 8M4 8L10.94 3.6625C11.4555 3.34033 11.7132 3.17925 12 3.17925C12.2868 3.17925 12.5445 3.34033 13.06 3.6625L20 8" stroke="white" stroke-linejoin="round"/>
<path d="M15.5 14.5C15.5 14.7761 15.7239 15 16 15C16.2761 15 16.5 14.7761 16.5 14.5H15.5ZM15.8746 10.5695L16.312 10.3271L15.8746 10.5695ZM8 5.5L7.735 5.924L14.795 10.3365L15.06 9.9125L15.325 9.4885L8.265 5.076L8 5.5ZM16 14.5H16.5V11.6085H16H15.5V14.5H16ZM15.06 9.9125L14.795 10.3365C15.0327 10.4851 15.1812 10.5785 15.2884 10.6607C15.3872 10.7364 15.4195 10.7797 15.4373 10.8119L15.8746 10.5695L16.312 10.3271C16.2045 10.1331 16.0592 9.99148 15.8968 9.86705C15.7429 9.74909 15.5468 9.62712 15.325 9.4885L15.06 9.9125ZM16 11.6085H16.5C16.5 11.347 16.5005 11.116 16.4821 10.923C16.4626 10.7194 16.4195 10.5211 16.312 10.3271L15.8746 10.5695L15.4373 10.8119C15.4552 10.8441 15.4747 10.8943 15.4866 11.0182C15.4995 11.1527 15.5 11.3281 15.5 11.6085H16Z" fill="white"/>
</svg>
